<?xml version="1.0" encoding="utf-8"?>
<!-- Generator: Adobe Illustrator 23.0.3, SVG Export Plug-In . SVG Version: 6.00 Build 0)  -->
<svg version="1.1" xmlns="http://www.w3.org/2000/svg" xmlns:xlink="http://www.w3.org/1999/xlink" x="0px" y="0px"
	 viewBox="0 0 354 321" style="enable-background:new 0 0 354 321;" xml:space="preserve">
<style type="text/css">
	.st0{display:none;}
	.st1{display:inline;fill:none;stroke:#000000;stroke-width:0.25;stroke-miterlimit:10;}
	.st2{fill:#FFFFFF;stroke:#FFFFFF;stroke-miterlimit:10;}
	.st3{fill:#FFFFFF;}
</style>
<g id="eps" class="st0">
	<path class="st1" d="M352.8-51.6H100.2C45.6-51.6,1.2-7.3,1.2,47.3c0,0.7,0,1.4,0,2.1l0,143c1.7,0.2,3.4,0.2,5.1,0.2
		c28.6,0,52.2-22.2,53.9-50.7l0,0V53.6c0-24.4,18-45,42.1-48.4h250.5V-51.6z"/>
	<path class="st1" d="M1.2,297.6h252.6c54.6,0,98.9-44.3,98.9-98.9c0-0.7,0-1.4,0-2.1l0,0l0-143c-1.7-0.2-3.4-0.2-5.1-0.2
		c-28.6,0-52.2,22.2-53.9,50.7l0,0v88.3c0,24.4-18,45-42.1,48.4l0,0H1.2V297.6z"/>
</g>
<g id="Слой_2">
	<path class="st2" d="M353,0.8c0,0-148,0-253,0c-58,0-99,53-99,99c0,65,0,145,0,145c21,3,57-11,59-50c1.6-32,0-88,0-88
		c0-25,21-49,44-49c88,0,249,0,249,0V0.8z"/>
	<path class="st2" d="M1,320.2c0,0,148,0,253,0c58,0,99-53,99-99c0-65,0-145,0-145c-21-3-57,11-59,50c-1.6,32,0,88,0,88
		c0,25-21,49-44,49c-88,0-249,0-249,0V320.2z"/>
	<g>
		<path class="st3" d="M204.1,220.6h-54.2v-2.7l4-0.2c3.2-0.3,5.2-1.1,5.8-2.3c0.7-1.2,1-3.9,1-8l0.2-7.7v-39.9l-0.2-6.8
			c-0.2-2.7-0.6-4.7-1-6c-0.4-1.3-2.4-2.2-6-2.5l-4.5-0.3v-2.7h43.9v58.2l0.2,7.7c0,4,0.3,6.6,1,7.9c0.7,1.3,2.6,2.1,5.8,2.4l4,0.2
			V220.6z M160.4,113.7c0-4.3,1.6-8,4.8-11.1c3.2-3.1,7-4.6,11.5-4.6c4.6,0,8.5,1.5,11.6,4.4c3.2,2.9,4.8,6.7,4.8,11.3
			c0,4.4-1.6,8.2-4.8,11.3c-3.2,3.1-7.1,4.6-11.6,4.6c-4.5,0-8.3-1.5-11.5-4.6C162,121.9,160.4,118.1,160.4,113.7z"/>
	</g>
</g>
</svg>
